<mxfile host="Electron" modified="2023-06-17T08:53:55.745Z" agent="Mozilla/5.0 (Windows NT 10.0; Win64; x64) AppleWebKit/537.36 (KHTML, like Gecko) draw.io/21.2.8 Chrome/112.0.5615.165 Electron/24.2.0 Safari/537.36" etag="QZNfgkt4Im8rZid6Uoa4" version="21.2.8" type="device">
  <diagram name="PÃ¡gina-1" id="nnZFmFOOJVzah6RzFUVj">
    <mxGraphModel dx="3712" dy="828" grid="1" gridSize="10" guides="1" tooltips="1" connect="1" arrows="1" fold="1" page="1" pageScale="1" pageWidth="827" pageHeight="1169" math="0" shadow="0">
      <root>
        <mxCell id="0" />
        <mxCell id="1" parent="0" />
        <mxCell id="laBi-dhQgEcBMlCpC2Ps-1" value="" style="rounded=0;whiteSpace=wrap;html=1;fillColor=none;dashed=1;" parent="1" vertex="1">
          <mxGeometry x="-1310" y="320" width="1480" height="1110" as="geometry" />
        </mxCell>
        <mxCell id="p0zxZLVMPCqbVk1gS0Qo-3" value="" style="endArrow=classic;html=1;rounded=0;entryX=0.5;entryY=1;entryDx=0;entryDy=0;" parent="1" source="p0zxZLVMPCqbVk1gS0Qo-2" target="laBi-dhQgEcBMlCpC2Ps-27" edge="1">
          <mxGeometry width="50" height="50" relative="1" as="geometry">
            <mxPoint x="-440" y="1170" as="sourcePoint" />
            <mxPoint x="-390" y="1120" as="targetPoint" />
          </mxGeometry>
        </mxCell>
        <mxCell id="laBi-dhQgEcBMlCpC2Ps-2" value="" style="rounded=0;whiteSpace=wrap;html=1;fillColor=none;dashed=1;" parent="1" vertex="1">
          <mxGeometry x="-105.13" y="851" width="240" height="520" as="geometry" />
        </mxCell>
        <mxCell id="laBi-dhQgEcBMlCpC2Ps-3" value="" style="rounded=0;whiteSpace=wrap;html=1;fillColor=none;dashed=1;" parent="1" vertex="1">
          <mxGeometry x="450" y="960" width="630" height="353.79" as="geometry" />
        </mxCell>
        <mxCell id="laBi-dhQgEcBMlCpC2Ps-4" style="edgeStyle=orthogonalEdgeStyle;rounded=0;orthogonalLoop=1;jettySize=auto;html=1;exitX=0.5;exitY=0;exitDx=0;exitDy=0;entryX=0.5;entryY=1;entryDx=0;entryDy=0;" parent="1" source="laBi-dhQgEcBMlCpC2Ps-6" target="laBi-dhQgEcBMlCpC2Ps-58" edge="1">
          <mxGeometry relative="1" as="geometry" />
        </mxCell>
        <mxCell id="laBi-dhQgEcBMlCpC2Ps-5" style="edgeStyle=orthogonalEdgeStyle;rounded=0;orthogonalLoop=1;jettySize=auto;html=1;exitX=0.5;exitY=1;exitDx=0;exitDy=0;entryX=0.5;entryY=0;entryDx=0;entryDy=0;" parent="1" source="laBi-dhQgEcBMlCpC2Ps-6" target="laBi-dhQgEcBMlCpC2Ps-127" edge="1">
          <mxGeometry relative="1" as="geometry" />
        </mxCell>
        <mxCell id="laBi-dhQgEcBMlCpC2Ps-6" value="" style="shape=hexagon;perimeter=hexagonPerimeter2;whiteSpace=wrap;html=1;fixedSize=1;fillColor=#fff2cc;strokeColor=#d6b656;" parent="1" vertex="1">
          <mxGeometry x="-820" y="1020" width="120" height="80" as="geometry" />
        </mxCell>
        <mxCell id="laBi-dhQgEcBMlCpC2Ps-7" value="envio-ms" style="text;html=1;strokeColor=none;fillColor=none;align=center;verticalAlign=middle;whiteSpace=wrap;rounded=0;fontSize=16;" parent="1" vertex="1">
          <mxGeometry x="-800" y="1035" width="80" height="50" as="geometry" />
        </mxCell>
        <mxCell id="laBi-dhQgEcBMlCpC2Ps-8" value="" style="shape=cylinder3;whiteSpace=wrap;html=1;boundedLbl=1;backgroundOutline=1;size=15;fontSize=18;fillColor=#d5e8d4;strokeColor=#82b366;" parent="1" vertex="1">
          <mxGeometry x="-740" y="1070" width="30" height="50" as="geometry" />
        </mxCell>
        <mxCell id="laBi-dhQgEcBMlCpC2Ps-9" value="Gateway de API" style="rounded=0;whiteSpace=wrap;html=1;fontSize=18;fillColor=#f5f5f5;strokeColor=#666666;fontColor=#333333;" parent="1" vertex="1">
          <mxGeometry x="-825" y="190" width="440" height="40" as="geometry" />
        </mxCell>
        <mxCell id="laBi-dhQgEcBMlCpC2Ps-10" value="" style="verticalLabelPosition=bottom;verticalAlign=top;html=1;shadow=0;dashed=0;strokeWidth=1;shape=mxgraph.android.phone2;strokeColor=#c0c0c0;fontSize=18;fillColor=#232F3D;" parent="1" vertex="1">
          <mxGeometry x="-654.5" y="47" width="30" height="60" as="geometry" />
        </mxCell>
        <mxCell id="laBi-dhQgEcBMlCpC2Ps-11" value="" style="sketch=0;outlineConnect=0;fontColor=#232F3E;gradientColor=none;fillColor=#232F3D;strokeColor=none;dashed=0;verticalLabelPosition=bottom;verticalAlign=top;align=center;html=1;fontSize=12;fontStyle=0;aspect=fixed;pointerEvents=1;shape=mxgraph.aws4.client;" parent="1" vertex="1">
          <mxGeometry x="-594.5" y="40" width="78" height="76" as="geometry" />
        </mxCell>
        <mxCell id="laBi-dhQgEcBMlCpC2Ps-12" value="&lt;font style=&quot;font-size: 18px;&quot;&gt;Clientes&lt;/font&gt;" style="text;html=1;strokeColor=none;fillColor=none;align=center;verticalAlign=middle;whiteSpace=wrap;rounded=0;fontSize=16;" parent="1" vertex="1">
          <mxGeometry x="-765" y="58" width="80" height="40" as="geometry" />
        </mxCell>
        <mxCell id="laBi-dhQgEcBMlCpC2Ps-13" style="edgeStyle=orthogonalEdgeStyle;rounded=0;orthogonalLoop=1;jettySize=auto;html=1;exitX=0;exitY=0.5;exitDx=0;exitDy=0;entryX=1;entryY=0.5;entryDx=0;entryDy=0;" parent="1" source="laBi-dhQgEcBMlCpC2Ps-16" target="laBi-dhQgEcBMlCpC2Ps-52" edge="1">
          <mxGeometry relative="1" as="geometry">
            <mxPoint x="-620" y="960" as="targetPoint" />
          </mxGeometry>
        </mxCell>
        <mxCell id="laBi-dhQgEcBMlCpC2Ps-14" style="edgeStyle=orthogonalEdgeStyle;rounded=0;orthogonalLoop=1;jettySize=auto;html=1;exitX=1;exitY=0.5;exitDx=0;exitDy=0;entryX=0;entryY=0.5;entryDx=0;entryDy=0;" parent="1" source="laBi-dhQgEcBMlCpC2Ps-16" target="laBi-dhQgEcBMlCpC2Ps-49" edge="1">
          <mxGeometry relative="1" as="geometry" />
        </mxCell>
        <mxCell id="laBi-dhQgEcBMlCpC2Ps-15" style="rounded=0;orthogonalLoop=1;jettySize=auto;html=1;exitX=1;exitY=0.25;exitDx=0;exitDy=0;entryX=0;entryY=0.5;entryDx=0;entryDy=0;startArrow=classic;startFill=1;" parent="1" source="laBi-dhQgEcBMlCpC2Ps-16" target="laBi-dhQgEcBMlCpC2Ps-31" edge="1">
          <mxGeometry relative="1" as="geometry" />
        </mxCell>
        <mxCell id="laBi-dhQgEcBMlCpC2Ps-16" value="" style="shape=hexagon;perimeter=hexagonPerimeter2;whiteSpace=wrap;html=1;fixedSize=1;fillColor=#fff2cc;strokeColor=#d6b656;" parent="1" vertex="1">
          <mxGeometry x="-555" y="860" width="120" height="80" as="geometry" />
        </mxCell>
        <mxCell id="laBi-dhQgEcBMlCpC2Ps-17" value="pagamento-ms" style="text;html=1;strokeColor=none;fillColor=none;align=center;verticalAlign=middle;whiteSpace=wrap;rounded=0;fontSize=16;" parent="1" vertex="1">
          <mxGeometry x="-533.75" y="875" width="77.5" height="50" as="geometry" />
        </mxCell>
        <mxCell id="laBi-dhQgEcBMlCpC2Ps-18" value="" style="shape=cylinder3;whiteSpace=wrap;html=1;boundedLbl=1;backgroundOutline=1;size=15;fontSize=18;fillColor=#d5e8d4;strokeColor=#82b366;" parent="1" vertex="1">
          <mxGeometry x="-475" y="910" width="30" height="50" as="geometry" />
        </mxCell>
        <mxCell id="laBi-dhQgEcBMlCpC2Ps-19" value="" style="endArrow=classic;html=1;rounded=0;strokeWidth=1;fontSize=18;startArrow=classic;startFill=1;" parent="1" edge="1">
          <mxGeometry width="50" height="50" relative="1" as="geometry">
            <mxPoint x="-605" y="120" as="sourcePoint" />
            <mxPoint x="-605" y="180" as="targetPoint" />
          </mxGeometry>
        </mxCell>
        <mxCell id="laBi-dhQgEcBMlCpC2Ps-20" value="&lt;font style=&quot;font-size: 18px;&quot;&gt;Provedor de identidade&lt;/font&gt;" style="rounded=0;whiteSpace=wrap;html=1;fillColor=#f8cecc;strokeColor=#b85450;" parent="1" vertex="1">
          <mxGeometry x="-305" y="180" width="120" height="60" as="geometry" />
        </mxCell>
        <mxCell id="laBi-dhQgEcBMlCpC2Ps-21" value="" style="endArrow=classic;startArrow=classic;html=1;rounded=0;fontSize=18;exitX=1;exitY=0.5;exitDx=0;exitDy=0;entryX=0;entryY=0.5;entryDx=0;entryDy=0;" parent="1" source="laBi-dhQgEcBMlCpC2Ps-9" target="laBi-dhQgEcBMlCpC2Ps-20" edge="1">
          <mxGeometry width="50" height="50" relative="1" as="geometry">
            <mxPoint x="-355" y="280" as="sourcePoint" />
            <mxPoint x="-305" y="230" as="targetPoint" />
          </mxGeometry>
        </mxCell>
        <mxCell id="laBi-dhQgEcBMlCpC2Ps-22" value="&lt;font style=&quot;font-size: 16px;&quot;&gt;POST /pedidos&lt;/font&gt;" style="text;html=1;strokeColor=none;fillColor=none;align=center;verticalAlign=middle;whiteSpace=wrap;rounded=0;fontSize=18;" parent="1" vertex="1">
          <mxGeometry x="-740" y="260" width="130" height="30" as="geometry" />
        </mxCell>
        <mxCell id="laBi-dhQgEcBMlCpC2Ps-24" value="&lt;font style=&quot;font-size: 33px;&quot;&gt;Contexto e-commerce&lt;/font&gt;" style="text;html=1;strokeColor=none;fillColor=none;align=center;verticalAlign=middle;whiteSpace=wrap;rounded=0;fontSize=16;" parent="1" vertex="1">
          <mxGeometry x="-192" y="1371" width="340" height="60" as="geometry" />
        </mxCell>
        <mxCell id="laBi-dhQgEcBMlCpC2Ps-25" value="&lt;font style=&quot;font-size: 16px;&quot;&gt;Consumidores das APIs&lt;/font&gt;" style="text;html=1;strokeColor=none;fillColor=none;align=center;verticalAlign=middle;whiteSpace=wrap;rounded=0;fontSize=16;" parent="1" vertex="1">
          <mxGeometry x="-875" y="82" width="190" height="34" as="geometry" />
        </mxCell>
        <mxCell id="laBi-dhQgEcBMlCpC2Ps-26" style="edgeStyle=orthogonalEdgeStyle;rounded=0;orthogonalLoop=1;jettySize=auto;html=1;exitX=0;exitY=0.5;exitDx=0;exitDy=0;entryX=1;entryY=0.5;entryDx=0;entryDy=0;" parent="1" source="laBi-dhQgEcBMlCpC2Ps-27" target="laBi-dhQgEcBMlCpC2Ps-56" edge="1">
          <mxGeometry relative="1" as="geometry" />
        </mxCell>
        <mxCell id="laBi-dhQgEcBMlCpC2Ps-27" value="" style="shape=hexagon;perimeter=hexagonPerimeter2;whiteSpace=wrap;html=1;fixedSize=1;fillColor=#fff2cc;strokeColor=#d6b656;" parent="1" vertex="1">
          <mxGeometry x="-305" y="1020" width="120" height="80" as="geometry" />
        </mxCell>
        <mxCell id="laBi-dhQgEcBMlCpC2Ps-28" value="fulfillment-ms" style="text;html=1;strokeColor=none;fillColor=none;align=center;verticalAlign=middle;whiteSpace=wrap;rounded=0;fontSize=16;" parent="1" vertex="1">
          <mxGeometry x="-295" y="1035" width="100" height="50" as="geometry" />
        </mxCell>
        <mxCell id="laBi-dhQgEcBMlCpC2Ps-29" value="" style="shape=cylinder3;whiteSpace=wrap;html=1;boundedLbl=1;backgroundOutline=1;size=15;fontSize=18;fillColor=#d5e8d4;strokeColor=#82b366;" parent="1" vertex="1">
          <mxGeometry x="-225" y="1070" width="30" height="50" as="geometry" />
        </mxCell>
        <mxCell id="laBi-dhQgEcBMlCpC2Ps-30" style="edgeStyle=orthogonalEdgeStyle;rounded=0;orthogonalLoop=1;jettySize=auto;html=1;exitX=1;exitY=0.5;exitDx=0;exitDy=0;entryX=0;entryY=0.5;entryDx=0;entryDy=0;startArrow=classic;startFill=1;" parent="1" source="laBi-dhQgEcBMlCpC2Ps-31" target="laBi-dhQgEcBMlCpC2Ps-138" edge="1">
          <mxGeometry relative="1" as="geometry" />
        </mxCell>
        <mxCell id="laBi-dhQgEcBMlCpC2Ps-31" value="" style="shape=hexagon;perimeter=hexagonPerimeter2;whiteSpace=wrap;html=1;fixedSize=1;fillColor=#f8cecc;strokeColor=#b85450;" parent="1" vertex="1">
          <mxGeometry x="-190" y="735" width="120" height="80" as="geometry" />
        </mxCell>
        <mxCell id="laBi-dhQgEcBMlCpC2Ps-32" value="&lt;font style=&quot;font-size: 14px;&quot;&gt;pagamento-acl&lt;/font&gt;" style="text;html=1;strokeColor=none;fillColor=none;align=center;verticalAlign=middle;whiteSpace=wrap;rounded=0;fontSize=16;" parent="1" vertex="1">
          <mxGeometry x="-180" y="750" width="95" height="50" as="geometry" />
        </mxCell>
        <mxCell id="laBi-dhQgEcBMlCpC2Ps-33" style="edgeStyle=orthogonalEdgeStyle;rounded=0;orthogonalLoop=1;jettySize=auto;html=1;exitX=0.5;exitY=1;exitDx=0;exitDy=0;startArrow=classic;startFill=1;" parent="1" source="laBi-dhQgEcBMlCpC2Ps-35" target="laBi-dhQgEcBMlCpC2Ps-129" edge="1">
          <mxGeometry relative="1" as="geometry" />
        </mxCell>
        <mxCell id="laBi-dhQgEcBMlCpC2Ps-34" style="edgeStyle=orthogonalEdgeStyle;rounded=0;orthogonalLoop=1;jettySize=auto;html=1;exitX=0.5;exitY=0;exitDx=0;exitDy=0;entryX=0.5;entryY=1;entryDx=0;entryDy=0;" parent="1" source="laBi-dhQgEcBMlCpC2Ps-35" target="laBi-dhQgEcBMlCpC2Ps-64" edge="1">
          <mxGeometry relative="1" as="geometry" />
        </mxCell>
        <mxCell id="laBi-dhQgEcBMlCpC2Ps-35" value="" style="shape=hexagon;perimeter=hexagonPerimeter2;whiteSpace=wrap;html=1;fixedSize=1;fillColor=#f8cecc;strokeColor=#b85450;" parent="1" vertex="1">
          <mxGeometry x="-1070" y="1205" width="120" height="80" as="geometry" />
        </mxCell>
        <mxCell id="laBi-dhQgEcBMlCpC2Ps-36" value="&lt;font style=&quot;font-size: 16px;&quot;&gt;envio-acl&lt;/font&gt;" style="text;html=1;strokeColor=none;fillColor=none;align=center;verticalAlign=middle;whiteSpace=wrap;rounded=0;fontSize=16;" parent="1" vertex="1">
          <mxGeometry x="-1040" y="1220" width="70" height="50" as="geometry" />
        </mxCell>
        <mxCell id="laBi-dhQgEcBMlCpC2Ps-37" value="" style="shape=hexagon;perimeter=hexagonPerimeter2;whiteSpace=wrap;html=1;fixedSize=1;fillColor=#f8cecc;strokeColor=#b85450;" parent="1" vertex="1">
          <mxGeometry x="-1256.88" y="605" width="120" height="80" as="geometry" />
        </mxCell>
        <mxCell id="laBi-dhQgEcBMlCpC2Ps-38" style="edgeStyle=orthogonalEdgeStyle;rounded=0;orthogonalLoop=1;jettySize=auto;html=1;startArrow=classic;startFill=1;" parent="1" target="laBi-dhQgEcBMlCpC2Ps-135" edge="1">
          <mxGeometry relative="1" as="geometry">
            <mxPoint x="-1260" y="675" as="sourcePoint" />
          </mxGeometry>
        </mxCell>
        <mxCell id="laBi-dhQgEcBMlCpC2Ps-39" value="&lt;font style=&quot;font-size: 16px;&quot;&gt;notificacao-acl&lt;/font&gt;" style="text;html=1;strokeColor=none;fillColor=none;align=center;verticalAlign=middle;whiteSpace=wrap;rounded=0;fontSize=16;" parent="1" vertex="1">
          <mxGeometry x="-1246.88" y="620" width="100" height="50" as="geometry" />
        </mxCell>
        <mxCell id="laBi-dhQgEcBMlCpC2Ps-40" style="edgeStyle=orthogonalEdgeStyle;rounded=0;orthogonalLoop=1;jettySize=auto;html=1;exitX=1;exitY=0.5;exitDx=0;exitDy=0;entryX=0;entryY=0.5;entryDx=0;entryDy=0;dashed=1;" parent="1" source="laBi-dhQgEcBMlCpC2Ps-106" target="laBi-dhQgEcBMlCpC2Ps-88" edge="1">
          <mxGeometry relative="1" as="geometry" />
        </mxCell>
        <mxCell id="laBi-dhQgEcBMlCpC2Ps-41" style="edgeStyle=orthogonalEdgeStyle;rounded=0;orthogonalLoop=1;jettySize=auto;html=1;exitX=0;exitY=0.5;exitDx=0;exitDy=0;entryX=1;entryY=0.5;entryDx=0;entryDy=0;dashed=1;" parent="1" source="laBi-dhQgEcBMlCpC2Ps-109" target="laBi-dhQgEcBMlCpC2Ps-88" edge="1">
          <mxGeometry relative="1" as="geometry" />
        </mxCell>
        <mxCell id="laBi-dhQgEcBMlCpC2Ps-42" value="" style="rounded=1;whiteSpace=wrap;html=1;fillColor=#ffe6cc;strokeColor=#d79b00;" parent="1" vertex="1">
          <mxGeometry x="-570" y="770" width="150" height="50" as="geometry" />
        </mxCell>
        <mxCell id="laBi-dhQgEcBMlCpC2Ps-43" style="edgeStyle=orthogonalEdgeStyle;rounded=0;orthogonalLoop=1;jettySize=auto;html=1;exitX=0.5;exitY=1;exitDx=0;exitDy=0;entryX=0.5;entryY=0;entryDx=0;entryDy=0;dashed=1;" parent="1" source="laBi-dhQgEcBMlCpC2Ps-44" target="laBi-dhQgEcBMlCpC2Ps-16" edge="1">
          <mxGeometry relative="1" as="geometry" />
        </mxCell>
        <mxCell id="laBi-dhQgEcBMlCpC2Ps-44" value="pedido-confirmado" style="text;html=1;strokeColor=none;fillColor=none;align=center;verticalAlign=middle;whiteSpace=wrap;rounded=0;fontSize=16;" parent="1" vertex="1">
          <mxGeometry x="-562.5" y="770" width="135" height="50" as="geometry" />
        </mxCell>
        <mxCell id="laBi-dhQgEcBMlCpC2Ps-45" style="edgeStyle=orthogonalEdgeStyle;rounded=0;orthogonalLoop=1;jettySize=auto;html=1;exitX=1;exitY=0.5;exitDx=0;exitDy=0;entryX=0;entryY=0.5;entryDx=0;entryDy=0;dashed=1;" parent="1" source="laBi-dhQgEcBMlCpC2Ps-47" target="laBi-dhQgEcBMlCpC2Ps-88" edge="1">
          <mxGeometry relative="1" as="geometry">
            <Array as="points">
              <mxPoint x="-600" y="645" />
              <mxPoint x="-600" y="585" />
            </Array>
          </mxGeometry>
        </mxCell>
        <mxCell id="laBi-dhQgEcBMlCpC2Ps-46" style="edgeStyle=orthogonalEdgeStyle;rounded=0;orthogonalLoop=1;jettySize=auto;html=1;exitX=0;exitY=0.5;exitDx=0;exitDy=0;entryX=1;entryY=0.5;entryDx=0;entryDy=0;dashed=1;" parent="1" source="laBi-dhQgEcBMlCpC2Ps-47" target="laBi-dhQgEcBMlCpC2Ps-37" edge="1">
          <mxGeometry relative="1" as="geometry" />
        </mxCell>
        <mxCell id="laBi-dhQgEcBMlCpC2Ps-47" value="" style="rounded=1;whiteSpace=wrap;html=1;fillColor=#ffe6cc;strokeColor=#d79b00;" parent="1" vertex="1">
          <mxGeometry x="-1020" y="620" width="150" height="50" as="geometry" />
        </mxCell>
        <mxCell id="laBi-dhQgEcBMlCpC2Ps-48" value="pedido-recusado" style="text;html=1;strokeColor=none;fillColor=none;align=center;verticalAlign=middle;whiteSpace=wrap;rounded=0;fontSize=16;" parent="1" vertex="1">
          <mxGeometry x="-1001.25" y="630" width="122.5" height="30" as="geometry" />
        </mxCell>
        <mxCell id="laBi-dhQgEcBMlCpC2Ps-49" value="" style="rounded=1;whiteSpace=wrap;html=1;fillColor=#ffe6cc;strokeColor=#d79b00;" parent="1" vertex="1">
          <mxGeometry x="-320" y="875" width="150" height="50" as="geometry" />
        </mxCell>
        <mxCell id="laBi-dhQgEcBMlCpC2Ps-50" style="edgeStyle=orthogonalEdgeStyle;rounded=0;orthogonalLoop=1;jettySize=auto;html=1;entryX=0.5;entryY=0;entryDx=0;entryDy=0;dashed=1;" parent="1" source="laBi-dhQgEcBMlCpC2Ps-51" target="laBi-dhQgEcBMlCpC2Ps-27" edge="1">
          <mxGeometry relative="1" as="geometry" />
        </mxCell>
        <mxCell id="laBi-dhQgEcBMlCpC2Ps-51" value="pagamento-autorizado" style="text;html=1;strokeColor=none;fillColor=none;align=center;verticalAlign=middle;whiteSpace=wrap;rounded=0;fontSize=16;" parent="1" vertex="1">
          <mxGeometry x="-312.5" y="875" width="135" height="50" as="geometry" />
        </mxCell>
        <mxCell id="laBi-dhQgEcBMlCpC2Ps-52" value="" style="rounded=1;whiteSpace=wrap;html=1;fillColor=#ffe6cc;strokeColor=#d79b00;" parent="1" vertex="1">
          <mxGeometry x="-820" y="875" width="150" height="50" as="geometry" />
        </mxCell>
        <mxCell id="laBi-dhQgEcBMlCpC2Ps-53" style="rounded=0;orthogonalLoop=1;jettySize=auto;html=1;exitX=0.5;exitY=0;exitDx=0;exitDy=0;entryX=0.861;entryY=0.998;entryDx=0;entryDy=0;entryPerimeter=0;dashed=1;" parent="1" source="laBi-dhQgEcBMlCpC2Ps-182" target="laBi-dhQgEcBMlCpC2Ps-134" edge="1">
          <mxGeometry relative="1" as="geometry">
            <mxPoint x="-740" y="840" as="targetPoint" />
          </mxGeometry>
        </mxCell>
        <mxCell id="laBi-dhQgEcBMlCpC2Ps-54" value="pagamento-negado" style="text;html=1;strokeColor=none;fillColor=none;align=center;verticalAlign=middle;whiteSpace=wrap;rounded=0;fontSize=16;" parent="1" vertex="1">
          <mxGeometry x="-806.25" y="882.5" width="122.5" height="35" as="geometry" />
        </mxCell>
        <mxCell id="laBi-dhQgEcBMlCpC2Ps-55" style="edgeStyle=orthogonalEdgeStyle;rounded=0;orthogonalLoop=1;jettySize=auto;html=1;exitX=0;exitY=0.5;exitDx=0;exitDy=0;entryX=1;entryY=0.5;entryDx=0;entryDy=0;dashed=1;" parent="1" source="laBi-dhQgEcBMlCpC2Ps-56" target="laBi-dhQgEcBMlCpC2Ps-6" edge="1">
          <mxGeometry relative="1" as="geometry" />
        </mxCell>
        <mxCell id="laBi-dhQgEcBMlCpC2Ps-56" value="" style="rounded=1;whiteSpace=wrap;html=1;fillColor=#ffe6cc;strokeColor=#d79b00;" parent="1" vertex="1">
          <mxGeometry x="-570" y="1035" width="150" height="50" as="geometry" />
        </mxCell>
        <mxCell id="laBi-dhQgEcBMlCpC2Ps-57" value="pedido-embalado" style="text;html=1;strokeColor=none;fillColor=none;align=center;verticalAlign=middle;whiteSpace=wrap;rounded=0;fontSize=16;" parent="1" vertex="1">
          <mxGeometry x="-562.5" y="1035" width="135" height="50" as="geometry" />
        </mxCell>
        <mxCell id="laBi-dhQgEcBMlCpC2Ps-58" value="" style="rounded=1;whiteSpace=wrap;html=1;fillColor=#ffe6cc;strokeColor=#d79b00;" parent="1" vertex="1">
          <mxGeometry x="-1027.5" y="875" width="150" height="50" as="geometry" />
        </mxCell>
        <mxCell id="laBi-dhQgEcBMlCpC2Ps-59" style="rounded=0;orthogonalLoop=1;jettySize=auto;html=1;exitX=0.5;exitY=0;exitDx=0;exitDy=0;entryX=0.477;entryY=1;entryDx=0;entryDy=0;dashed=1;entryPerimeter=0;" parent="1" source="laBi-dhQgEcBMlCpC2Ps-178" target="laBi-dhQgEcBMlCpC2Ps-134" edge="1">
          <mxGeometry relative="1" as="geometry" />
        </mxCell>
        <mxCell id="laBi-dhQgEcBMlCpC2Ps-61" value="pedido-enviado" style="text;html=1;strokeColor=none;fillColor=none;align=center;verticalAlign=middle;whiteSpace=wrap;rounded=0;fontSize=16;" parent="1" vertex="1">
          <mxGeometry x="-1020" y="875" width="135" height="50" as="geometry" />
        </mxCell>
        <mxCell id="laBi-dhQgEcBMlCpC2Ps-62" value="" style="rounded=1;whiteSpace=wrap;html=1;fillColor=#ffe6cc;strokeColor=#d79b00;" parent="1" vertex="1">
          <mxGeometry x="-1210" y="875" width="150" height="50" as="geometry" />
        </mxCell>
        <mxCell id="laBi-dhQgEcBMlCpC2Ps-63" style="edgeStyle=orthogonalEdgeStyle;rounded=0;orthogonalLoop=1;jettySize=auto;html=1;exitX=0.5;exitY=0;exitDx=0;exitDy=0;entryX=0.14;entryY=1.163;entryDx=0;entryDy=0;entryPerimeter=0;dashed=1;" parent="1" source="laBi-dhQgEcBMlCpC2Ps-64" target="laBi-dhQgEcBMlCpC2Ps-134" edge="1">
          <mxGeometry relative="1" as="geometry" />
        </mxCell>
        <mxCell id="laBi-dhQgEcBMlCpC2Ps-64" value="pedido-entregue" style="text;html=1;strokeColor=none;fillColor=none;align=center;verticalAlign=middle;whiteSpace=wrap;rounded=0;fontSize=16;" parent="1" vertex="1">
          <mxGeometry x="-1202.5" y="875" width="135" height="50" as="geometry" />
        </mxCell>
        <mxCell id="laBi-dhQgEcBMlCpC2Ps-65" value="" style="group" parent="1" connectable="0" vertex="1">
          <mxGeometry x="-94" y="1031" width="220" height="50" as="geometry" />
        </mxCell>
        <mxCell id="laBi-dhQgEcBMlCpC2Ps-66" value="" style="rounded=1;whiteSpace=wrap;html=1;fillColor=#ffe6cc;strokeColor=#FF0000;dashed=1;" parent="laBi-dhQgEcBMlCpC2Ps-65" vertex="1">
          <mxGeometry width="217.75" height="50" as="geometry" />
        </mxCell>
        <mxCell id="laBi-dhQgEcBMlCpC2Ps-67" value="&lt;font style=&quot;font-size: 16px;&quot;&gt;pagamento-processing-error&lt;/font&gt;" style="text;html=1;strokeColor=none;fillColor=none;align=center;verticalAlign=middle;whiteSpace=wrap;rounded=0;fontSize=16;" parent="laBi-dhQgEcBMlCpC2Ps-65" vertex="1">
          <mxGeometry width="220" height="50" as="geometry" />
        </mxCell>
        <mxCell id="laBi-dhQgEcBMlCpC2Ps-68" value="" style="group" parent="1" connectable="0" vertex="1">
          <mxGeometry x="-94" y="1141" width="220" height="50" as="geometry" />
        </mxCell>
        <mxCell id="laBi-dhQgEcBMlCpC2Ps-69" value="" style="rounded=1;whiteSpace=wrap;html=1;fillColor=#ffe6cc;strokeColor=#FF0000;dashed=1;" parent="laBi-dhQgEcBMlCpC2Ps-68" vertex="1">
          <mxGeometry width="217.75" height="50" as="geometry" />
        </mxCell>
        <mxCell id="laBi-dhQgEcBMlCpC2Ps-70" value="&lt;font style=&quot;font-size: 16px;&quot;&gt;envio-processing-error&lt;/font&gt;" style="text;html=1;strokeColor=none;fillColor=none;align=center;verticalAlign=middle;whiteSpace=wrap;rounded=0;fontSize=16;" parent="laBi-dhQgEcBMlCpC2Ps-68" vertex="1">
          <mxGeometry width="220" height="50" as="geometry" />
        </mxCell>
        <mxCell id="laBi-dhQgEcBMlCpC2Ps-71" value="" style="group" parent="1" connectable="0" vertex="1">
          <mxGeometry x="-94" y="866" width="220" height="50" as="geometry" />
        </mxCell>
        <mxCell id="laBi-dhQgEcBMlCpC2Ps-72" value="" style="rounded=1;whiteSpace=wrap;html=1;fillColor=#ffe6cc;strokeColor=#FF0000;dashed=1;" parent="laBi-dhQgEcBMlCpC2Ps-71" vertex="1">
          <mxGeometry width="217.75" height="50" as="geometry" />
        </mxCell>
        <mxCell id="laBi-dhQgEcBMlCpC2Ps-73" value="&lt;font style=&quot;font-size: 16px;&quot;&gt;pedido-processing-error&lt;/font&gt;" style="text;html=1;strokeColor=none;fillColor=none;align=center;verticalAlign=middle;whiteSpace=wrap;rounded=0;fontSize=16;" parent="laBi-dhQgEcBMlCpC2Ps-71" vertex="1">
          <mxGeometry width="220" height="50" as="geometry" />
        </mxCell>
        <mxCell id="laBi-dhQgEcBMlCpC2Ps-74" value="" style="group" parent="1" connectable="0" vertex="1">
          <mxGeometry x="-94" y="976" width="220" height="50" as="geometry" />
        </mxCell>
        <mxCell id="laBi-dhQgEcBMlCpC2Ps-75" value="" style="rounded=1;whiteSpace=wrap;html=1;fillColor=#ffe6cc;strokeColor=#FF0000;dashed=1;" parent="laBi-dhQgEcBMlCpC2Ps-74" vertex="1">
          <mxGeometry width="217.75" height="50" as="geometry" />
        </mxCell>
        <mxCell id="laBi-dhQgEcBMlCpC2Ps-76" value="&lt;font style=&quot;font-size: 16px;&quot;&gt;inventory-processing-error&lt;/font&gt;" style="text;html=1;strokeColor=none;fillColor=none;align=center;verticalAlign=middle;whiteSpace=wrap;rounded=0;fontSize=16;" parent="laBi-dhQgEcBMlCpC2Ps-74" vertex="1">
          <mxGeometry width="220" height="50" as="geometry" />
        </mxCell>
        <mxCell id="laBi-dhQgEcBMlCpC2Ps-77" value="" style="group" parent="1" connectable="0" vertex="1">
          <mxGeometry x="-94" y="1086" width="220" height="50" as="geometry" />
        </mxCell>
        <mxCell id="laBi-dhQgEcBMlCpC2Ps-78" value="" style="rounded=1;whiteSpace=wrap;html=1;fillColor=#ffe6cc;strokeColor=#FF0000;dashed=1;" parent="laBi-dhQgEcBMlCpC2Ps-77" vertex="1">
          <mxGeometry width="217.75" height="50" as="geometry" />
        </mxCell>
        <mxCell id="laBi-dhQgEcBMlCpC2Ps-79" value="&lt;font style=&quot;font-size: 16px;&quot;&gt;fulfillment-processing-error&lt;/font&gt;" style="text;html=1;strokeColor=none;fillColor=none;align=center;verticalAlign=middle;whiteSpace=wrap;rounded=0;fontSize=16;" parent="laBi-dhQgEcBMlCpC2Ps-77" vertex="1">
          <mxGeometry width="220" height="50" as="geometry" />
        </mxCell>
        <mxCell id="laBi-dhQgEcBMlCpC2Ps-80" style="edgeStyle=orthogonalEdgeStyle;rounded=0;orthogonalLoop=1;jettySize=auto;html=1;exitX=1;exitY=0.5;exitDx=0;exitDy=0;entryX=0;entryY=0.5;entryDx=0;entryDy=0;" parent="1" source="laBi-dhQgEcBMlCpC2Ps-81" target="laBi-dhQgEcBMlCpC2Ps-152" edge="1">
          <mxGeometry relative="1" as="geometry" />
        </mxCell>
        <mxCell id="laBi-dhQgEcBMlCpC2Ps-81" value="" style="shape=hexagon;perimeter=hexagonPerimeter2;whiteSpace=wrap;html=1;fixedSize=1;fillColor=#fff2cc;strokeColor=#d6b656;" parent="1" vertex="1">
          <mxGeometry x="506" y="1130" width="120" height="80" as="geometry" />
        </mxCell>
        <mxCell id="laBi-dhQgEcBMlCpC2Ps-82" value="manutencao-ms" style="text;html=1;strokeColor=none;fillColor=none;align=center;verticalAlign=middle;whiteSpace=wrap;rounded=0;fontSize=16;" parent="1" vertex="1">
          <mxGeometry x="516" y="1145" width="100" height="50" as="geometry" />
        </mxCell>
        <mxCell id="laBi-dhQgEcBMlCpC2Ps-83" value="" style="shape=cylinder3;whiteSpace=wrap;html=1;boundedLbl=1;backgroundOutline=1;size=15;fontSize=18;fillColor=#d5e8d4;strokeColor=#82b366;" parent="1" vertex="1">
          <mxGeometry x="586" y="1180" width="30" height="50" as="geometry" />
        </mxCell>
        <mxCell id="laBi-dhQgEcBMlCpC2Ps-87" value="" style="group" parent="1" connectable="0" vertex="1">
          <mxGeometry x="-555" y="540" width="120" height="100" as="geometry" />
        </mxCell>
        <mxCell id="laBi-dhQgEcBMlCpC2Ps-88" value="" style="shape=hexagon;perimeter=hexagonPerimeter2;whiteSpace=wrap;html=1;fixedSize=1;fillColor=#fff2cc;strokeColor=#d6b656;" parent="laBi-dhQgEcBMlCpC2Ps-87" vertex="1">
          <mxGeometry y="5" width="120" height="80" as="geometry" />
        </mxCell>
        <mxCell id="laBi-dhQgEcBMlCpC2Ps-89" value="pedido-ms" style="text;html=1;strokeColor=none;fillColor=none;align=center;verticalAlign=middle;whiteSpace=wrap;rounded=0;fontSize=16;" parent="laBi-dhQgEcBMlCpC2Ps-87" vertex="1">
          <mxGeometry x="20.25" y="30" width="79.5" height="30" as="geometry" />
        </mxCell>
        <mxCell id="laBi-dhQgEcBMlCpC2Ps-90" value="" style="shape=cylinder3;whiteSpace=wrap;html=1;boundedLbl=1;backgroundOutline=1;size=15;fontSize=18;fillColor=#d5e8d4;strokeColor=#82b366;" parent="laBi-dhQgEcBMlCpC2Ps-87" vertex="1">
          <mxGeometry x="87" y="50" width="30" height="50" as="geometry" />
        </mxCell>
        <mxCell id="laBi-dhQgEcBMlCpC2Ps-91" value="" style="endArrow=classic;startArrow=classic;html=1;rounded=0;" parent="1" edge="1">
          <mxGeometry width="50" height="50" relative="1" as="geometry">
            <mxPoint x="-605.31" y="311" as="sourcePoint" />
            <mxPoint x="-605.31" y="241" as="targetPoint" />
          </mxGeometry>
        </mxCell>
        <mxCell id="laBi-dhQgEcBMlCpC2Ps-92" value="&lt;font style=&quot;font-size: 16px;&quot;&gt;GET /pedidos&lt;/font&gt;" style="text;html=1;strokeColor=none;fillColor=none;align=center;verticalAlign=middle;whiteSpace=wrap;rounded=0;fontSize=18;" parent="1" vertex="1">
          <mxGeometry x="-594.5" y="260" width="130" height="30" as="geometry" />
        </mxCell>
        <mxCell id="laBi-dhQgEcBMlCpC2Ps-93" value="" style="group" parent="1" connectable="0" vertex="1">
          <mxGeometry x="-900" y="390" width="120" height="110" as="geometry" />
        </mxCell>
        <mxCell id="laBi-dhQgEcBMlCpC2Ps-94" value="" style="shape=hexagon;perimeter=hexagonPerimeter2;whiteSpace=wrap;html=1;fixedSize=1;fillColor=#fff2cc;strokeColor=#d6b656;" parent="laBi-dhQgEcBMlCpC2Ps-93" vertex="1">
          <mxGeometry width="120" height="80" as="geometry" />
        </mxCell>
        <mxCell id="laBi-dhQgEcBMlCpC2Ps-95" value="qualificacao-ms" style="text;html=1;strokeColor=none;fillColor=none;align=center;verticalAlign=middle;whiteSpace=wrap;rounded=0;fontSize=16;" parent="laBi-dhQgEcBMlCpC2Ps-93" vertex="1">
          <mxGeometry x="10" y="15" width="100" height="50" as="geometry" />
        </mxCell>
        <mxCell id="laBi-dhQgEcBMlCpC2Ps-96" value="" style="shape=cylinder3;whiteSpace=wrap;html=1;boundedLbl=1;backgroundOutline=1;size=15;fontSize=18;fillColor=#d5e8d4;strokeColor=#82b366;" parent="laBi-dhQgEcBMlCpC2Ps-93" vertex="1">
          <mxGeometry x="80" y="50" width="30" height="50" as="geometry" />
        </mxCell>
        <mxCell id="laBi-dhQgEcBMlCpC2Ps-97" value="" style="group" parent="laBi-dhQgEcBMlCpC2Ps-93" connectable="0" vertex="1">
          <mxGeometry x="-730" y="-50" width="70" height="60" as="geometry" />
        </mxCell>
        <mxCell id="laBi-dhQgEcBMlCpC2Ps-98" value="" style="shape=hexagon;perimeter=hexagonPerimeter2;whiteSpace=wrap;html=1;fixedSize=1;fillColor=#fff2cc;strokeColor=#d6b656;" parent="laBi-dhQgEcBMlCpC2Ps-97" vertex="1">
          <mxGeometry width="70" height="48" as="geometry" />
        </mxCell>
        <mxCell id="laBi-dhQgEcBMlCpC2Ps-99" value="" style="group" parent="1" connectable="0" vertex="1">
          <mxGeometry x="-170" y="390" width="120" height="100" as="geometry" />
        </mxCell>
        <mxCell id="laBi-dhQgEcBMlCpC2Ps-100" value="" style="shape=hexagon;perimeter=hexagonPerimeter2;whiteSpace=wrap;html=1;fixedSize=1;fillColor=#fff2cc;strokeColor=#d6b656;" parent="laBi-dhQgEcBMlCpC2Ps-99" vertex="1">
          <mxGeometry width="120" height="80" as="geometry" />
        </mxCell>
        <mxCell id="laBi-dhQgEcBMlCpC2Ps-101" value="inventory-ms" style="text;html=1;strokeColor=none;fillColor=none;align=center;verticalAlign=middle;whiteSpace=wrap;rounded=0;fontSize=16;" parent="laBi-dhQgEcBMlCpC2Ps-99" vertex="1">
          <mxGeometry x="10" y="15" width="100" height="50" as="geometry" />
        </mxCell>
        <mxCell id="laBi-dhQgEcBMlCpC2Ps-102" value="" style="shape=cylinder3;whiteSpace=wrap;html=1;boundedLbl=1;backgroundOutline=1;size=15;fontSize=18;fillColor=#d5e8d4;strokeColor=#82b366;" parent="laBi-dhQgEcBMlCpC2Ps-99" vertex="1">
          <mxGeometry x="80" y="50" width="30" height="50" as="geometry" />
        </mxCell>
        <mxCell id="laBi-dhQgEcBMlCpC2Ps-103" style="edgeStyle=orthogonalEdgeStyle;rounded=0;orthogonalLoop=1;jettySize=auto;html=1;exitX=0.5;exitY=1;exitDx=0;exitDy=0;entryX=0;entryY=0.5;entryDx=0;entryDy=0;" parent="1" source="laBi-dhQgEcBMlCpC2Ps-94" target="laBi-dhQgEcBMlCpC2Ps-106" edge="1">
          <mxGeometry relative="1" as="geometry">
            <mxPoint x="-705" y="550" as="targetPoint" />
          </mxGeometry>
        </mxCell>
        <mxCell id="laBi-dhQgEcBMlCpC2Ps-104" style="edgeStyle=orthogonalEdgeStyle;rounded=0;orthogonalLoop=1;jettySize=auto;html=1;exitX=0.5;exitY=1;exitDx=0;exitDy=0;entryX=1;entryY=0.5;entryDx=0;entryDy=0;" parent="1" source="laBi-dhQgEcBMlCpC2Ps-100" target="laBi-dhQgEcBMlCpC2Ps-109" edge="1">
          <mxGeometry relative="1" as="geometry">
            <mxPoint x="-280" y="540" as="targetPoint" />
          </mxGeometry>
        </mxCell>
        <mxCell id="laBi-dhQgEcBMlCpC2Ps-105" value="" style="group" parent="1" connectable="0" vertex="1">
          <mxGeometry x="-780" y="560" width="150" height="50" as="geometry" />
        </mxCell>
        <mxCell id="laBi-dhQgEcBMlCpC2Ps-106" value="" style="rounded=1;whiteSpace=wrap;html=1;fillColor=#ffe6cc;strokeColor=#d79b00;" parent="laBi-dhQgEcBMlCpC2Ps-105" vertex="1">
          <mxGeometry width="150" height="50" as="geometry" />
        </mxCell>
        <mxCell id="laBi-dhQgEcBMlCpC2Ps-107" value="pedido-qualificado" style="text;html=1;strokeColor=none;fillColor=none;align=center;verticalAlign=middle;whiteSpace=wrap;rounded=0;fontSize=16;" parent="laBi-dhQgEcBMlCpC2Ps-105" vertex="1">
          <mxGeometry x="7.5" y="5" width="135" height="40" as="geometry" />
        </mxCell>
        <mxCell id="laBi-dhQgEcBMlCpC2Ps-108" value="" style="group" parent="1" connectable="0" vertex="1">
          <mxGeometry x="-350" y="560" width="150" height="50" as="geometry" />
        </mxCell>
        <mxCell id="laBi-dhQgEcBMlCpC2Ps-109" value="" style="rounded=1;whiteSpace=wrap;html=1;fillColor=#ffe6cc;strokeColor=#d79b00;" parent="laBi-dhQgEcBMlCpC2Ps-108" vertex="1">
          <mxGeometry width="150" height="50" as="geometry" />
        </mxCell>
        <mxCell id="laBi-dhQgEcBMlCpC2Ps-110" value="pedido-reservado" style="text;html=1;strokeColor=none;fillColor=none;align=center;verticalAlign=middle;whiteSpace=wrap;rounded=0;fontSize=16;" parent="laBi-dhQgEcBMlCpC2Ps-108" vertex="1">
          <mxGeometry x="7.5" y="5" width="135" height="40" as="geometry" />
        </mxCell>
        <mxCell id="laBi-dhQgEcBMlCpC2Ps-111" value="" style="group" parent="1" connectable="0" vertex="1">
          <mxGeometry x="-570" y="405" width="150" height="50" as="geometry" />
        </mxCell>
        <mxCell id="laBi-dhQgEcBMlCpC2Ps-112" value="" style="rounded=1;whiteSpace=wrap;html=1;fillColor=#ffe6cc;strokeColor=#d79b00;container=0;" parent="laBi-dhQgEcBMlCpC2Ps-111" vertex="1">
          <mxGeometry width="150" height="50" as="geometry" />
        </mxCell>
        <mxCell id="laBi-dhQgEcBMlCpC2Ps-113" value="pedido-criado" style="text;html=1;strokeColor=none;fillColor=none;align=center;verticalAlign=middle;whiteSpace=wrap;rounded=0;fontSize=16;container=0;" parent="laBi-dhQgEcBMlCpC2Ps-111" vertex="1">
          <mxGeometry x="25" y="10" width="100" height="30" as="geometry" />
        </mxCell>
        <mxCell id="laBi-dhQgEcBMlCpC2Ps-114" style="edgeStyle=orthogonalEdgeStyle;rounded=0;orthogonalLoop=1;jettySize=auto;html=1;exitX=0.5;exitY=0;exitDx=0;exitDy=0;entryX=0.5;entryY=1;entryDx=0;entryDy=0;" parent="1" source="laBi-dhQgEcBMlCpC2Ps-88" target="laBi-dhQgEcBMlCpC2Ps-112" edge="1">
          <mxGeometry relative="1" as="geometry">
            <mxPoint x="-495" y="470" as="targetPoint" />
          </mxGeometry>
        </mxCell>
        <mxCell id="laBi-dhQgEcBMlCpC2Ps-116" style="edgeStyle=orthogonalEdgeStyle;rounded=0;orthogonalLoop=1;jettySize=auto;html=1;exitX=1;exitY=0.5;exitDx=0;exitDy=0;entryX=0;entryY=0.5;entryDx=0;entryDy=0;dashed=1;" parent="1" source="laBi-dhQgEcBMlCpC2Ps-112" target="laBi-dhQgEcBMlCpC2Ps-100" edge="1">
          <mxGeometry relative="1" as="geometry" />
        </mxCell>
        <mxCell id="laBi-dhQgEcBMlCpC2Ps-117" style="edgeStyle=orthogonalEdgeStyle;rounded=0;orthogonalLoop=1;jettySize=auto;html=1;exitX=0;exitY=0.5;exitDx=0;exitDy=0;entryX=1;entryY=0.5;entryDx=0;entryDy=0;dashed=1;" parent="1" source="laBi-dhQgEcBMlCpC2Ps-112" target="laBi-dhQgEcBMlCpC2Ps-94" edge="1">
          <mxGeometry relative="1" as="geometry" />
        </mxCell>
        <mxCell id="laBi-dhQgEcBMlCpC2Ps-118" value="" style="endArrow=classic;html=1;rounded=0;exitX=0;exitY=0.5;exitDx=0;exitDy=0;" parent="1" source="laBi-dhQgEcBMlCpC2Ps-94" edge="1">
          <mxGeometry width="50" height="50" relative="1" as="geometry">
            <mxPoint x="-1030" y="580" as="sourcePoint" />
            <mxPoint x="-945" y="620" as="targetPoint" />
            <Array as="points">
              <mxPoint x="-945" y="430" />
            </Array>
          </mxGeometry>
        </mxCell>
        <mxCell id="laBi-dhQgEcBMlCpC2Ps-119" style="edgeStyle=orthogonalEdgeStyle;rounded=0;orthogonalLoop=1;jettySize=auto;html=1;exitX=1;exitY=0.5;exitDx=0;exitDy=0;entryX=0.5;entryY=0;entryDx=0;entryDy=0;" parent="1" source="laBi-dhQgEcBMlCpC2Ps-100" target="laBi-dhQgEcBMlCpC2Ps-123" edge="1">
          <mxGeometry relative="1" as="geometry" />
        </mxCell>
        <mxCell id="laBi-dhQgEcBMlCpC2Ps-120" value="" style="group" parent="1" connectable="0" vertex="1">
          <mxGeometry x="-80" y="630" width="150" height="50" as="geometry" />
        </mxCell>
        <mxCell id="laBi-dhQgEcBMlCpC2Ps-121" value="" style="group" parent="laBi-dhQgEcBMlCpC2Ps-120" connectable="0" vertex="1">
          <mxGeometry y="10" width="150" height="50" as="geometry" />
        </mxCell>
        <mxCell id="laBi-dhQgEcBMlCpC2Ps-122" value="" style="rounded=1;whiteSpace=wrap;html=1;fillColor=#ffe6cc;strokeColor=#d79b00;" parent="laBi-dhQgEcBMlCpC2Ps-121" vertex="1">
          <mxGeometry width="150" height="50" as="geometry" />
        </mxCell>
        <mxCell id="laBi-dhQgEcBMlCpC2Ps-123" value="pedido-recusado" style="text;html=1;strokeColor=none;fillColor=none;align=center;verticalAlign=middle;whiteSpace=wrap;rounded=0;fontSize=16;" parent="laBi-dhQgEcBMlCpC2Ps-121" vertex="1">
          <mxGeometry x="7.5" width="135" height="50" as="geometry" />
        </mxCell>
        <mxCell id="laBi-dhQgEcBMlCpC2Ps-124" value="" style="endArrow=classic;html=1;rounded=0;exitX=0;exitY=0.5;exitDx=0;exitDy=0;entryX=1;entryY=0.5;entryDx=0;entryDy=0;dashed=1;" parent="1" source="laBi-dhQgEcBMlCpC2Ps-122" target="laBi-dhQgEcBMlCpC2Ps-88" edge="1">
          <mxGeometry width="50" height="50" relative="1" as="geometry">
            <mxPoint x="-570" y="800" as="sourcePoint" />
            <mxPoint x="-520" y="750" as="targetPoint" />
            <Array as="points">
              <mxPoint x="-260" y="665" />
              <mxPoint x="-390" y="665" />
              <mxPoint x="-390" y="585" />
            </Array>
          </mxGeometry>
        </mxCell>
        <mxCell id="laBi-dhQgEcBMlCpC2Ps-125" style="edgeStyle=orthogonalEdgeStyle;rounded=0;orthogonalLoop=1;jettySize=auto;html=1;exitX=0.5;exitY=1;exitDx=0;exitDy=0;entryX=0.5;entryY=0;entryDx=0;entryDy=0;" parent="1" source="laBi-dhQgEcBMlCpC2Ps-88" target="laBi-dhQgEcBMlCpC2Ps-44" edge="1">
          <mxGeometry relative="1" as="geometry">
            <mxPoint x="-495" y="640" as="targetPoint" />
          </mxGeometry>
        </mxCell>
        <mxCell id="laBi-dhQgEcBMlCpC2Ps-126" style="edgeStyle=orthogonalEdgeStyle;rounded=0;orthogonalLoop=1;jettySize=auto;html=1;exitX=0;exitY=0.5;exitDx=0;exitDy=0;entryX=1;entryY=0.5;entryDx=0;entryDy=0;dashed=1;" parent="1" source="laBi-dhQgEcBMlCpC2Ps-127" target="laBi-dhQgEcBMlCpC2Ps-35" edge="1">
          <mxGeometry relative="1" as="geometry" />
        </mxCell>
        <mxCell id="laBi-dhQgEcBMlCpC2Ps-127" value="" style="rounded=1;whiteSpace=wrap;html=1;fillColor=#ffe6cc;strokeColor=#d79b00;" parent="1" vertex="1">
          <mxGeometry x="-835" y="1220" width="150" height="50" as="geometry" />
        </mxCell>
        <mxCell id="laBi-dhQgEcBMlCpC2Ps-128" value="pedido-envio-solicitado" style="text;html=1;strokeColor=none;fillColor=none;align=center;verticalAlign=middle;whiteSpace=wrap;rounded=0;fontSize=16;" parent="1" vertex="1">
          <mxGeometry x="-820" y="1220" width="120" height="50" as="geometry" />
        </mxCell>
        <mxCell id="laBi-dhQgEcBMlCpC2Ps-129" value="&lt;font style=&quot;font-size: 16px;&quot;&gt;Sistema de entrega&lt;/font&gt;" style="rounded=0;whiteSpace=wrap;html=1;fillColor=#f5f5f5;fontColor=#333333;strokeColor=#666666;" parent="1" vertex="1">
          <mxGeometry x="-1080" y="1515" width="140" height="80" as="geometry" />
        </mxCell>
        <mxCell id="laBi-dhQgEcBMlCpC2Ps-130" value="&lt;font style=&quot;font-size: 16px;&quot;&gt;REST&lt;/font&gt;" style="text;html=1;strokeColor=none;fillColor=none;align=center;verticalAlign=middle;whiteSpace=wrap;rounded=0;" parent="1" vertex="1">
          <mxGeometry x="-1010" y="1315" width="60" height="30" as="geometry" />
        </mxCell>
        <mxCell id="laBi-dhQgEcBMlCpC2Ps-131" value="" style="endArrow=classic;html=1;rounded=0;exitX=0;exitY=0.5;exitDx=0;exitDy=0;entryX=0.5;entryY=1;entryDx=0;entryDy=0;" parent="1" source="laBi-dhQgEcBMlCpC2Ps-129" target="laBi-dhQgEcBMlCpC2Ps-171" edge="1">
          <mxGeometry width="50" height="50" relative="1" as="geometry">
            <mxPoint x="-1240" y="1465" as="sourcePoint" />
            <mxPoint x="-1190" y="1415" as="targetPoint" />
            <Array as="points">
              <mxPoint x="-1180" y="1555" />
              <mxPoint x="-1220" y="1555" />
            </Array>
          </mxGeometry>
        </mxCell>
        <mxCell id="laBi-dhQgEcBMlCpC2Ps-132" value="&lt;font style=&quot;font-size: 16px;&quot;&gt;NotificaÃ§Ã£o webhook&lt;/font&gt;" style="text;html=1;strokeColor=none;fillColor=none;align=center;verticalAlign=middle;whiteSpace=wrap;rounded=0;" parent="1" vertex="1">
          <mxGeometry x="-1194" y="1559" width="100" height="40" as="geometry" />
        </mxCell>
        <mxCell id="laBi-dhQgEcBMlCpC2Ps-133" style="edgeStyle=orthogonalEdgeStyle;rounded=0;orthogonalLoop=1;jettySize=auto;html=1;exitX=0.5;exitY=0;exitDx=0;exitDy=0;entryX=0.375;entryY=1;entryDx=0;entryDy=0;dashed=1;" parent="1" source="laBi-dhQgEcBMlCpC2Ps-134" target="laBi-dhQgEcBMlCpC2Ps-88" edge="1">
          <mxGeometry relative="1" as="geometry">
            <Array as="points">
              <mxPoint x="-940" y="720" />
              <mxPoint x="-510" y="720" />
            </Array>
          </mxGeometry>
        </mxCell>
        <mxCell id="laBi-dhQgEcBMlCpC2Ps-134" value="" style="rounded=1;whiteSpace=wrap;html=1;fillColor=#f5f5f5;strokeColor=#666666;fontColor=#333333;" parent="1" vertex="1">
          <mxGeometry x="-1210" y="770" width="540" height="15" as="geometry" />
        </mxCell>
        <mxCell id="laBi-dhQgEcBMlCpC2Ps-135" value="&lt;font style=&quot;font-size: 16px;&quot;&gt;Sistema de notificaÃ§Ã£o&lt;/font&gt;" style="rounded=0;whiteSpace=wrap;html=1;fillColor=#f5f5f5;fontColor=#333333;strokeColor=#666666;" parent="1" vertex="1">
          <mxGeometry x="-1580" y="635" width="140" height="80" as="geometry" />
        </mxCell>
        <mxCell id="laBi-dhQgEcBMlCpC2Ps-136" value="&lt;font style=&quot;font-size: 16px;&quot;&gt;REST&lt;/font&gt;" style="text;html=1;strokeColor=none;fillColor=none;align=center;verticalAlign=middle;whiteSpace=wrap;rounded=0;" parent="1" vertex="1">
          <mxGeometry x="-1420" y="640" width="90" height="30" as="geometry" />
        </mxCell>
        <mxCell id="laBi-dhQgEcBMlCpC2Ps-137" value="&lt;font style=&quot;font-size: 16px;&quot;&gt;Pedido entregue&lt;/font&gt;" style="text;html=1;strokeColor=none;fillColor=none;align=center;verticalAlign=middle;whiteSpace=wrap;rounded=0;" parent="1" vertex="1">
          <mxGeometry x="-1219" y="1260" width="80" height="40" as="geometry" />
        </mxCell>
        <mxCell id="laBi-dhQgEcBMlCpC2Ps-138" value="&lt;font style=&quot;font-size: 16px;&quot;&gt;Gateway de Pagamento&lt;/font&gt;" style="rounded=0;whiteSpace=wrap;html=1;fillColor=#f5f5f5;fontColor=#333333;strokeColor=#666666;" parent="1" vertex="1">
          <mxGeometry x="230" y="735" width="140" height="80" as="geometry" />
        </mxCell>
        <mxCell id="laBi-dhQgEcBMlCpC2Ps-139" value="&lt;font style=&quot;font-size: 16px;&quot;&gt;REST&lt;/font&gt;" style="text;html=1;strokeColor=none;fillColor=none;align=center;verticalAlign=middle;whiteSpace=wrap;rounded=0;" parent="1" vertex="1">
          <mxGeometry x="-385" y="800" width="60" height="30" as="geometry" />
        </mxCell>
        <mxCell id="laBi-dhQgEcBMlCpC2Ps-140" value="&lt;font style=&quot;font-size: 16px;&quot;&gt;REST&lt;/font&gt;" style="text;html=1;strokeColor=none;fillColor=none;align=center;verticalAlign=middle;whiteSpace=wrap;rounded=0;" parent="1" vertex="1">
          <mxGeometry x="-10" y="740" width="60" height="30" as="geometry" />
        </mxCell>
        <mxCell id="laBi-dhQgEcBMlCpC2Ps-141" value="&lt;span style=&quot;font-size: 18px;&quot;&gt;MicrosserviÃ§o&lt;/span&gt;" style="text;html=1;strokeColor=none;fillColor=none;align=left;verticalAlign=middle;whiteSpace=wrap;rounded=0;fontSize=16;" parent="1" vertex="1">
          <mxGeometry x="-1550" y="345" width="105" height="40" as="geometry" />
        </mxCell>
        <mxCell id="laBi-dhQgEcBMlCpC2Ps-142" value="" style="shape=hexagon;perimeter=hexagonPerimeter2;whiteSpace=wrap;html=1;fixedSize=1;fillColor=#f8cecc;strokeColor=#b85450;" parent="1" vertex="1">
          <mxGeometry x="-1630" y="394" width="70" height="51" as="geometry" />
        </mxCell>
        <mxCell id="laBi-dhQgEcBMlCpC2Ps-143" value="&lt;span style=&quot;font-size: 18px;&quot;&gt;MicrosserviÃ§o anticorrupÃ§Ã£o&lt;/span&gt;" style="text;html=1;strokeColor=none;fillColor=none;align=left;verticalAlign=middle;whiteSpace=wrap;rounded=0;fontSize=16;" parent="1" vertex="1">
          <mxGeometry x="-1550" y="399.5" width="120" height="40" as="geometry" />
        </mxCell>
        <mxCell id="laBi-dhQgEcBMlCpC2Ps-144" value="" style="rounded=1;whiteSpace=wrap;html=1;fillColor=#ffe6cc;strokeColor=#d79b00;container=0;" parent="1" vertex="1">
          <mxGeometry x="-1630" y="453" width="70" height="30" as="geometry" />
        </mxCell>
        <mxCell id="laBi-dhQgEcBMlCpC2Ps-145" value="&lt;span style=&quot;font-size: 18px;&quot;&gt;Evento de negÃ³cio&lt;/span&gt;" style="text;html=1;strokeColor=none;fillColor=none;align=left;verticalAlign=middle;whiteSpace=wrap;rounded=0;fontSize=16;" parent="1" vertex="1">
          <mxGeometry x="-1552.5" y="448" width="155" height="40" as="geometry" />
        </mxCell>
        <mxCell id="laBi-dhQgEcBMlCpC2Ps-146" value="" style="rounded=1;whiteSpace=wrap;html=1;fillColor=#ffe6cc;strokeColor=#FF0000;container=0;dashed=1;" parent="1" vertex="1">
          <mxGeometry x="-1630" y="494" width="70" height="30" as="geometry" />
        </mxCell>
        <mxCell id="laBi-dhQgEcBMlCpC2Ps-147" value="&lt;span style=&quot;font-size: 18px;&quot;&gt;Evento de erro&lt;/span&gt;" style="text;html=1;strokeColor=none;fillColor=none;align=left;verticalAlign=middle;whiteSpace=wrap;rounded=0;fontSize=16;" parent="1" vertex="1">
          <mxGeometry x="-1552.5" y="489" width="125" height="40" as="geometry" />
        </mxCell>
        <mxCell id="laBi-dhQgEcBMlCpC2Ps-148" style="edgeStyle=orthogonalEdgeStyle;rounded=0;orthogonalLoop=1;jettySize=auto;html=1;exitX=1;exitY=0.5;exitDx=0;exitDy=0;entryX=0;entryY=0.5;entryDx=0;entryDy=0;" parent="1" source="laBi-dhQgEcBMlCpC2Ps-149" target="laBi-dhQgEcBMlCpC2Ps-158" edge="1">
          <mxGeometry relative="1" as="geometry" />
        </mxCell>
        <mxCell id="laBi-dhQgEcBMlCpC2Ps-149" value="&lt;font style=&quot;font-size: 16px;&quot;&gt;Binding&lt;/font&gt;" style="rounded=1;whiteSpace=wrap;html=1;fillColor=#bac8d3;strokeColor=#23445d;" parent="1" vertex="1">
          <mxGeometry x="260" y="1013.5" width="130" height="35" as="geometry" />
        </mxCell>
        <mxCell id="laBi-dhQgEcBMlCpC2Ps-150" value="" style="endArrow=classic;html=1;rounded=0;" parent="1" edge="1">
          <mxGeometry width="50" height="50" relative="1" as="geometry">
            <mxPoint x="140" y="1030" as="sourcePoint" />
            <mxPoint x="240" y="1030" as="targetPoint" />
          </mxGeometry>
        </mxCell>
        <mxCell id="laBi-dhQgEcBMlCpC2Ps-151" value="" style="endArrow=classic;html=1;rounded=0;exitX=0.5;exitY=1;exitDx=0;exitDy=0;entryX=0.5;entryY=0;entryDx=0;entryDy=0;" parent="1" source="laBi-dhQgEcBMlCpC2Ps-158" target="laBi-dhQgEcBMlCpC2Ps-81" edge="1">
          <mxGeometry width="50" height="50" relative="1" as="geometry">
            <mxPoint x="736" y="1130" as="sourcePoint" />
            <mxPoint x="786" y="1080" as="targetPoint" />
          </mxGeometry>
        </mxCell>
        <mxCell id="laBi-dhQgEcBMlCpC2Ps-152" value="Tela de manutenÃ§Ã£o" style="rounded=0;whiteSpace=wrap;html=1;fillColor=#e1d5e7;strokeColor=#9673a6;" parent="1" vertex="1">
          <mxGeometry x="736" y="1135" width="150" height="70" as="geometry" />
        </mxCell>
        <mxCell id="laBi-dhQgEcBMlCpC2Ps-153" value="" style="shape=actor;whiteSpace=wrap;html=1;" parent="1" vertex="1">
          <mxGeometry x="998.5" y="1130" width="40" height="60" as="geometry" />
        </mxCell>
        <mxCell id="laBi-dhQgEcBMlCpC2Ps-154" value="&lt;font style=&quot;font-size: 16px;&quot;&gt;OperaÃ§Ã£o&lt;/font&gt;" style="text;html=1;strokeColor=none;fillColor=none;align=center;verticalAlign=middle;whiteSpace=wrap;rounded=0;fontSize=16;" parent="1" vertex="1">
          <mxGeometry x="986" y="1190" width="65" height="30" as="geometry" />
        </mxCell>
        <mxCell id="laBi-dhQgEcBMlCpC2Ps-155" value="" style="endArrow=classic;html=1;rounded=0;" parent="1" edge="1">
          <mxGeometry width="50" height="50" relative="1" as="geometry">
            <mxPoint x="976" y="1169.79" as="sourcePoint" />
            <mxPoint x="916" y="1169.79" as="targetPoint" />
          </mxGeometry>
        </mxCell>
        <mxCell id="laBi-dhQgEcBMlCpC2Ps-156" value="&lt;font style=&quot;font-size: 33px;&quot;&gt;Contexto central de operaÃ§Ã£o&lt;/font&gt;" style="text;html=1;strokeColor=none;fillColor=none;align=center;verticalAlign=middle;whiteSpace=wrap;rounded=0;fontSize=16;" parent="1" vertex="1">
          <mxGeometry x="820" y="1240" width="254" height="60" as="geometry" />
        </mxCell>
        <mxCell id="laBi-dhQgEcBMlCpC2Ps-157" value="" style="rounded=1;whiteSpace=wrap;html=1;fillColor=#ffe6cc;strokeColor=#FF0000;dashed=1;" parent="1" vertex="1">
          <mxGeometry x="486" y="1000" width="217.75" height="62.758620689655174" as="geometry" />
        </mxCell>
        <mxCell id="laBi-dhQgEcBMlCpC2Ps-158" value="&lt;font style=&quot;font-size: 16px;&quot;&gt;events-error&lt;/font&gt;" style="text;html=1;strokeColor=none;fillColor=none;align=center;verticalAlign=middle;whiteSpace=wrap;rounded=0;fontSize=16;" parent="1" vertex="1">
          <mxGeometry x="486" y="1000" width="220" height="62.758620689655174" as="geometry" />
        </mxCell>
        <mxCell id="laBi-dhQgEcBMlCpC2Ps-159" value="" style="rounded=1;whiteSpace=wrap;html=1;fillColor=#ffe6cc;strokeColor=#FF0000;dashed=1;" parent="1" vertex="1">
          <mxGeometry x="-94" y="921" width="217.75" height="50" as="geometry" />
        </mxCell>
        <mxCell id="laBi-dhQgEcBMlCpC2Ps-160" value="&lt;font style=&quot;font-size: 16px;&quot;&gt;qualificacao-processing-error&lt;/font&gt;" style="text;html=1;strokeColor=none;fillColor=none;align=center;verticalAlign=middle;whiteSpace=wrap;rounded=0;fontSize=16;" parent="1" vertex="1">
          <mxGeometry x="-94" y="921" width="220" height="50" as="geometry" />
        </mxCell>
        <mxCell id="laBi-dhQgEcBMlCpC2Ps-161" value="" style="group" parent="1" connectable="0" vertex="1">
          <mxGeometry x="-94" y="1306" width="220" height="50" as="geometry" />
        </mxCell>
        <mxCell id="laBi-dhQgEcBMlCpC2Ps-162" value="" style="rounded=1;whiteSpace=wrap;html=1;fillColor=#ffe6cc;strokeColor=#FF0000;dashed=1;" parent="laBi-dhQgEcBMlCpC2Ps-161" vertex="1">
          <mxGeometry width="217.75" height="50" as="geometry" />
        </mxCell>
        <mxCell id="laBi-dhQgEcBMlCpC2Ps-163" value="&lt;font style=&quot;font-size: 16px;&quot;&gt;eventos-negÃ³cio-DLQs&lt;/font&gt;" style="text;html=1;strokeColor=none;fillColor=none;align=center;verticalAlign=middle;whiteSpace=wrap;rounded=0;fontSize=16;" parent="laBi-dhQgEcBMlCpC2Ps-161" vertex="1">
          <mxGeometry width="220" height="50" as="geometry" />
        </mxCell>
        <mxCell id="laBi-dhQgEcBMlCpC2Ps-164" value="&lt;font style=&quot;font-size: 20px;&quot;&gt;{json}&lt;/font&gt;" style="text;html=1;strokeColor=none;fillColor=none;align=center;verticalAlign=middle;whiteSpace=wrap;rounded=0;" parent="1" vertex="1">
          <mxGeometry x="160" y="1081.3799999999999" width="90" height="67.24" as="geometry" />
        </mxCell>
        <mxCell id="laBi-dhQgEcBMlCpC2Ps-165" value="&lt;font style=&quot;font-size: 20px;&quot;&gt;estrutura de erro&lt;/font&gt;" style="text;html=1;strokeColor=none;fillColor=none;align=center;verticalAlign=middle;whiteSpace=wrap;rounded=0;" parent="1" vertex="1">
          <mxGeometry x="255" y="1149" width="140" height="20" as="geometry" />
        </mxCell>
        <mxCell id="laBi-dhQgEcBMlCpC2Ps-166" style="edgeStyle=orthogonalEdgeStyle;rounded=0;orthogonalLoop=1;jettySize=auto;html=1;entryX=1;entryY=0.5;entryDx=0;entryDy=0;dashed=1;" parent="1" edge="1">
          <mxGeometry relative="1" as="geometry">
            <mxPoint x="-1562.5" y="574.5" as="sourcePoint" />
            <mxPoint x="-1632.5" y="574.5" as="targetPoint" />
          </mxGeometry>
        </mxCell>
        <mxCell id="laBi-dhQgEcBMlCpC2Ps-167" style="edgeStyle=orthogonalEdgeStyle;rounded=0;orthogonalLoop=1;jettySize=auto;html=1;entryX=1;entryY=0.5;entryDx=0;entryDy=0;startArrow=none;startFill=0;endArrow=classic;endFill=1;" parent="1" edge="1">
          <mxGeometry relative="1" as="geometry">
            <mxPoint x="-1562.5" y="544.3599999999999" as="sourcePoint" />
            <mxPoint x="-1632.5" y="544.3599999999999" as="targetPoint" />
          </mxGeometry>
        </mxCell>
        <mxCell id="laBi-dhQgEcBMlCpC2Ps-168" value="&lt;span style=&quot;font-size: 18px;&quot;&gt;PublicaÃ§Ã£o do evento&lt;/span&gt;" style="text;html=1;strokeColor=none;fillColor=none;align=left;verticalAlign=middle;whiteSpace=wrap;rounded=0;fontSize=16;" parent="1" vertex="1">
          <mxGeometry x="-1552.5" y="529" width="190" height="31" as="geometry" />
        </mxCell>
        <mxCell id="laBi-dhQgEcBMlCpC2Ps-169" value="&lt;span style=&quot;font-size: 18px;&quot;&gt;Consumo do evento&lt;/span&gt;" style="text;html=1;strokeColor=none;fillColor=none;align=left;verticalAlign=middle;whiteSpace=wrap;rounded=0;fontSize=16;" parent="1" vertex="1">
          <mxGeometry x="-1552.5" y="559" width="190" height="31" as="geometry" />
        </mxCell>
        <mxCell id="laBi-dhQgEcBMlCpC2Ps-170" style="edgeStyle=orthogonalEdgeStyle;rounded=0;orthogonalLoop=1;jettySize=auto;html=1;exitX=0.5;exitY=0;exitDx=0;exitDy=0;entryX=0;entryY=0.5;entryDx=0;entryDy=0;" parent="1" source="laBi-dhQgEcBMlCpC2Ps-171" target="laBi-dhQgEcBMlCpC2Ps-35" edge="1">
          <mxGeometry relative="1" as="geometry" />
        </mxCell>
        <mxCell id="laBi-dhQgEcBMlCpC2Ps-171" value="Gateway de API" style="rounded=0;whiteSpace=wrap;html=1;fontSize=18;fillColor=#f5f5f5;strokeColor=#666666;fontColor=#333333;" parent="1" vertex="1">
          <mxGeometry x="-1303.1299999999999" y="1485" width="166.25" height="40" as="geometry" />
        </mxCell>
        <mxCell id="laBi-dhQgEcBMlCpC2Ps-172" value="&lt;font style=&quot;font-size: 16px;&quot;&gt;Tipo: e-mail&lt;/font&gt;" style="text;html=1;strokeColor=none;fillColor=none;align=center;verticalAlign=middle;whiteSpace=wrap;rounded=0;" parent="1" vertex="1">
          <mxGeometry x="-1304" y="570" width="85" height="30" as="geometry" />
        </mxCell>
        <mxCell id="laBi-dhQgEcBMlCpC2Ps-173" value="&lt;span style=&quot;font-size: 20px;&quot;&gt;estrutura original do evento&lt;/span&gt;" style="text;html=1;strokeColor=none;fillColor=none;align=center;verticalAlign=middle;whiteSpace=wrap;rounded=0;" parent="1" vertex="1">
          <mxGeometry x="245" y="1062.76" width="160" height="50" as="geometry" />
        </mxCell>
        <mxCell id="laBi-dhQgEcBMlCpC2Ps-174" value="&lt;font style=&quot;font-size: 20px;&quot;&gt;+&lt;/font&gt;" style="text;html=1;strokeColor=none;fillColor=none;align=center;verticalAlign=middle;whiteSpace=wrap;rounded=0;" parent="1" vertex="1">
          <mxGeometry x="255" y="1112.76" width="140" height="20" as="geometry" />
        </mxCell>
        <mxCell id="laBi-dhQgEcBMlCpC2Ps-178" value="notifica o cliente que seu pedido foi enviado" style="text;html=1;strokeColor=none;fillColor=none;align=center;verticalAlign=middle;whiteSpace=wrap;rounded=0;" parent="1" vertex="1">
          <mxGeometry x="-1017" y="815" width="130" height="30" as="geometry" />
        </mxCell>
        <mxCell id="laBi-dhQgEcBMlCpC2Ps-179" value="atualiza a situaÃ§Ã£o do pedido" style="text;html=1;strokeColor=none;fillColor=none;align=center;verticalAlign=middle;whiteSpace=wrap;rounded=0;" parent="1" vertex="1">
          <mxGeometry x="-889.5" y="693" width="165" height="30" as="geometry" />
        </mxCell>
        <mxCell id="laBi-dhQgEcBMlCpC2Ps-180" value="notifica o cliente que seu pedido foi recusado e o motivo" style="text;html=1;strokeColor=none;fillColor=none;align=center;verticalAlign=middle;whiteSpace=wrap;rounded=0;" parent="1" vertex="1">
          <mxGeometry x="-1144.88" y="580" width="126.88" height="50" as="geometry" />
        </mxCell>
        <mxCell id="laBi-dhQgEcBMlCpC2Ps-182" value="notifica o cliente que seu pedido foi recusado com motivo de pgto negado" style="text;html=1;strokeColor=none;fillColor=none;align=center;verticalAlign=middle;whiteSpace=wrap;rounded=0;" parent="1" vertex="1">
          <mxGeometry x="-849.5" y="812.5" width="209" height="32.5" as="geometry" />
        </mxCell>
        <mxCell id="laBi-dhQgEcBMlCpC2Ps-183" value="" style="rounded=1;whiteSpace=wrap;html=1;fillColor=#ffe6cc;strokeColor=#d79b00;" parent="1" vertex="1">
          <mxGeometry x="-970" y="1120" width="150" height="50" as="geometry" />
        </mxCell>
        <mxCell id="laBi-dhQgEcBMlCpC2Ps-184" style="edgeStyle=orthogonalEdgeStyle;rounded=0;orthogonalLoop=1;jettySize=auto;html=1;exitX=0.5;exitY=0;exitDx=0;exitDy=0;entryX=0;entryY=0.5;entryDx=0;entryDy=0;dashed=1;" parent="1" source="laBi-dhQgEcBMlCpC2Ps-185" target="laBi-dhQgEcBMlCpC2Ps-6" edge="1">
          <mxGeometry relative="1" as="geometry" />
        </mxCell>
        <mxCell id="laBi-dhQgEcBMlCpC2Ps-185" value="pedido-envio-confirmado" style="text;html=1;strokeColor=none;fillColor=none;align=center;verticalAlign=middle;whiteSpace=wrap;rounded=0;fontSize=16;" parent="1" vertex="1">
          <mxGeometry x="-955" y="1119" width="120" height="50" as="geometry" />
        </mxCell>
        <mxCell id="laBi-dhQgEcBMlCpC2Ps-186" value="" style="endArrow=classic;html=1;rounded=0;exitX=1;exitY=0.25;exitDx=0;exitDy=0;" parent="1" source="laBi-dhQgEcBMlCpC2Ps-35" edge="1">
          <mxGeometry width="50" height="50" relative="1" as="geometry">
            <mxPoint x="-960" y="1220" as="sourcePoint" />
            <mxPoint x="-895" y="1170" as="targetPoint" />
            <Array as="points">
              <mxPoint x="-895" y="1228" />
            </Array>
          </mxGeometry>
        </mxCell>
        <mxCell id="laBi-dhQgEcBMlCpC2Ps-187" style="edgeStyle=orthogonalEdgeStyle;rounded=0;orthogonalLoop=1;jettySize=auto;html=1;entryX=0.625;entryY=1;entryDx=0;entryDy=0;dashed=1;exitX=0.5;exitY=0;exitDx=0;exitDy=0;" parent="1" source="laBi-dhQgEcBMlCpC2Ps-51" target="laBi-dhQgEcBMlCpC2Ps-88" edge="1">
          <mxGeometry relative="1" as="geometry">
            <mxPoint x="-235" y="935" as="sourcePoint" />
            <mxPoint x="-235" y="1030" as="targetPoint" />
            <Array as="points">
              <mxPoint x="-245" y="710" />
              <mxPoint x="-480" y="710" />
            </Array>
          </mxGeometry>
        </mxCell>
        <mxCell id="laBi-dhQgEcBMlCpC2Ps-188" value="pedido em preparaÃ§Ã£o" style="text;html=1;strokeColor=none;fillColor=none;align=center;verticalAlign=middle;whiteSpace=wrap;rounded=0;" parent="1" vertex="1">
          <mxGeometry x="-385" y="715" width="130" height="30" as="geometry" />
        </mxCell>
        <mxCell id="laBi-dhQgEcBMlCpC2Ps-189" value="" style="group" parent="1" connectable="0" vertex="1">
          <mxGeometry x="-94" y="1196" width="220" height="50" as="geometry" />
        </mxCell>
        <mxCell id="laBi-dhQgEcBMlCpC2Ps-190" value="" style="rounded=1;whiteSpace=wrap;html=1;fillColor=#ffe6cc;strokeColor=#FF0000;dashed=1;" parent="laBi-dhQgEcBMlCpC2Ps-189" vertex="1">
          <mxGeometry width="217.75" height="50" as="geometry" />
        </mxCell>
        <mxCell id="laBi-dhQgEcBMlCpC2Ps-191" value="&lt;font style=&quot;font-size: 16px;&quot;&gt;envio-acl-processing-error&lt;/font&gt;" style="text;html=1;strokeColor=none;fillColor=none;align=center;verticalAlign=middle;whiteSpace=wrap;rounded=0;fontSize=16;" parent="laBi-dhQgEcBMlCpC2Ps-189" vertex="1">
          <mxGeometry width="220" height="50" as="geometry" />
        </mxCell>
        <mxCell id="laBi-dhQgEcBMlCpC2Ps-192" value="" style="group" parent="1" connectable="0" vertex="1">
          <mxGeometry x="-94" y="1251" width="220" height="50" as="geometry" />
        </mxCell>
        <mxCell id="laBi-dhQgEcBMlCpC2Ps-193" value="" style="rounded=1;whiteSpace=wrap;html=1;fillColor=#ffe6cc;strokeColor=#FF0000;dashed=1;" parent="laBi-dhQgEcBMlCpC2Ps-192" vertex="1">
          <mxGeometry width="217.75" height="50" as="geometry" />
        </mxCell>
        <mxCell id="laBi-dhQgEcBMlCpC2Ps-194" value="&lt;font style=&quot;font-size: 16px;&quot;&gt;notificacao-acl-processing-error&lt;/font&gt;" style="text;html=1;strokeColor=none;fillColor=none;align=center;verticalAlign=middle;whiteSpace=wrap;rounded=0;fontSize=16;" parent="laBi-dhQgEcBMlCpC2Ps-192" vertex="1">
          <mxGeometry width="220" height="50" as="geometry" />
        </mxCell>
        <mxCell id="p0zxZLVMPCqbVk1gS0Qo-1" value="Gateway de API Interna" style="rounded=0;whiteSpace=wrap;html=1;fontSize=18;fillColor=#f5f5f5;strokeColor=#666666;fontColor=#333333;" parent="1" vertex="1">
          <mxGeometry x="-327.5" y="1205" width="165" height="45" as="geometry" />
        </mxCell>
        <mxCell id="p0zxZLVMPCqbVk1gS0Qo-2" value="PATCH&amp;nbsp;/fulfillments/pedidos/{orderId}/packaging" style="text;html=1;strokeColor=none;fillColor=none;align=center;verticalAlign=middle;whiteSpace=wrap;rounded=0;" parent="1" vertex="1">
          <mxGeometry x="-379.13" y="1141" width="268" height="30" as="geometry" />
        </mxCell>
        <mxCell id="p0zxZLVMPCqbVk1gS0Qo-4" value="" style="endArrow=none;html=1;rounded=0;entryX=0.5;entryY=1;entryDx=0;entryDy=0;exitX=0.5;exitY=0;exitDx=0;exitDy=0;" parent="1" source="p0zxZLVMPCqbVk1gS0Qo-1" target="p0zxZLVMPCqbVk1gS0Qo-2" edge="1">
          <mxGeometry width="50" height="50" relative="1" as="geometry">
            <mxPoint x="-270" y="1290" as="sourcePoint" />
            <mxPoint x="-220" y="1240" as="targetPoint" />
          </mxGeometry>
        </mxCell>
        <mxCell id="p0zxZLVMPCqbVk1gS0Qo-5" value="" style="endArrow=classic;html=1;rounded=0;dashed=1;entryX=0.5;entryY=1;entryDx=0;entryDy=0;" parent="1" target="laBi-dhQgEcBMlCpC2Ps-37" edge="1">
          <mxGeometry width="50" height="50" relative="1" as="geometry">
            <mxPoint x="-940" y="720" as="sourcePoint" />
            <mxPoint x="-1070" y="720" as="targetPoint" />
            <Array as="points">
              <mxPoint x="-1060" y="720" />
              <mxPoint x="-1197" y="720" />
            </Array>
          </mxGeometry>
        </mxCell>
        <mxCell id="p0zxZLVMPCqbVk1gS0Qo-6" value="" style="endArrow=none;dashed=1;html=1;dashPattern=1 3;strokeWidth=2;rounded=0;exitX=0.5;exitY=0;exitDx=0;exitDy=0;entryX=0.5;entryY=1;entryDx=0;entryDy=0;" parent="1" source="laBi-dhQgEcBMlCpC2Ps-61" target="laBi-dhQgEcBMlCpC2Ps-178" edge="1">
          <mxGeometry width="50" height="50" relative="1" as="geometry">
            <mxPoint x="-880" y="880" as="sourcePoint" />
            <mxPoint x="-830" y="830" as="targetPoint" />
          </mxGeometry>
        </mxCell>
        <mxCell id="p0zxZLVMPCqbVk1gS0Qo-7" value="" style="endArrow=none;dashed=1;html=1;strokeWidth=1;rounded=0;exitX=0.5;exitY=0;exitDx=0;exitDy=0;entryX=0.5;entryY=1;entryDx=0;entryDy=0;" parent="1" source="laBi-dhQgEcBMlCpC2Ps-52" target="laBi-dhQgEcBMlCpC2Ps-182" edge="1">
          <mxGeometry width="50" height="50" relative="1" as="geometry">
            <mxPoint x="-670" y="890" as="sourcePoint" />
            <mxPoint x="-620" y="840" as="targetPoint" />
          </mxGeometry>
        </mxCell>
      </root>
    </mxGraphModel>
  </diagram>
</mxfile>
